# xmcd CD Database Entry
#
# Track frame offsets:
# 150
# 19910
# 35762
# 53565
# 65202
# 77422
# 92707
# 109322
# 124305
# 135317
# 153265
# 172375
# 190952
# 202420
# 216917
#
# Disc length: 3110 seconds
#
# Revision: 1
# Processed by: cddbd v1.5PL3 Copyright (c) Steve Scherf et al.
# Submitted via: tcd 2.0b
#
DISCID=e30c240f
DTITLE=VAIROUS - SONG OF ANDES
DYEAR=2003
DGENRE=
TTITLE0=EL CONDOR PASA
TTITLE1=LA MARIPOSA
TTITLE2=MI DESVENTURA
TTITLE3=ACHACACHENITA
TTITLE4=LEN~O VERDE
TTITLE5=ROSHIO
TTITLE6=ESTOY LLORANDO
TTITLE7=HUERFANA VIRGINIA
TTITLE8=ECO DE INKALLAJTA
TTITLE9=VIRGINES DEL SOL
TTITLE10=LUCERO DE LAS MONTAN~AS
TTITLE11=EL OLVIDO
TTITLE12=POPURRI DE BAILECITOS
TTITLE13=A TU VUELO
TTITLE14=EL CONDOR PASA
EXTD=YEAR: 2003
EXTT0=
EXTT1=
EXTT2=
EXTT3=
EXTT4=
EXTT5=
EXTT6=
EXTT7=
EXTT8=
EXTT9=
EXTT10=
EXTT11=
EXTT12=
EXTT13=
EXTT14=
PLAYORDER=
